<?xml version="1.0" encoding="utf-8"?>
<!-- Generator: Adobe Illustrator 15.0.2, SVG Export Plug-In . SVG Version: 6.00 Build 0)  -->
<!DOCTYPE svg PUBLIC "-//W3C//DTD SVG 1.1//EN" "http://www.w3.org/Graphics/SVG/1.1/DTD/svg11.dtd">
<svg version="1.1" id="Layer_2" xmlns="http://www.w3.org/2000/svg" xmlns:xlink="http://www.w3.org/1999/xlink" x="0px" y="0px"
	 width="354.1px" height="113.2px" viewBox="0 0 354.1 113.2" style="enable-background:new 0 0 354.1 113.2;" xml:space="preserve"
	>
<style type="text/css">
<![CDATA[
	.st0{fill:url(#SVGID_1_);}
	.st1{fill:url(#SVGID_2_);}
	.st2{fill:#9D9FA2;}
]]>
</style>
<linearGradient id="SVGID_1_" gradientUnits="userSpaceOnUse" x1="195.7168" y1="18.7734" x2="354.0693" y2="18.7734">
	<stop  offset="0.1166" style="stop-color:#9D9FA2"/>
	<stop  offset="0.1598" style="stop-color:#A8AAAD"/>
	<stop  offset="0.3571" style="stop-color:#D7D8D9"/>
	<stop  offset="0.5086" style="stop-color:#F4F4F5"/>
	<stop  offset="0.5951" style="stop-color:#FFFFFF"/>
	<stop  offset="0.7456" style="stop-color:#D6D7D9"/>
	<stop  offset="0.9387" style="stop-color:#9D9FA2"/>
</linearGradient>
<path class="st0" d="M354.1,27.1l-12.8-20l-1.8,5.3c-6.6-1.8-34.1-8.6-64.6-8.6c-30.5,0-58,6.9-64.6,8.6l-1.8-5.3l-12.8,20l21.8,6.6
	l-1.9-5.6c5.2-3.4,27.7-17,58.9-17c20.4,0,40.4,5.8,59.6,17.1l-1.9,5.5L354.1,27.1z"/>
<g>
	<g>
		<path class="st2" d="M106.9,53.3H66.1c-3.5,0-6.3-2.8-6.3-6.3V6.3c0-3.5,2.8-6.3,6.3-6.3h40.8c3.5,0,6.3,2.8,6.3,6.3v40.8
			C113.2,50.5,110.4,53.3,106.9,53.3z M66.1,4.2C65,4.2,64,5.1,64,6.3v40.8c0,1.2,0.9,2.1,2.1,2.1h40.8c1.2,0,2.1-0.9,2.1-2.1V6.3
			c0-1.2-0.9-2.1-2.1-2.1H66.1z"/>
	</g>
	<g>
		<path class="st2" d="M106.9,113.2H66.1c-3.5,0-6.3-2.8-6.3-6.3V66.1c0-3.5,2.8-6.3,6.3-6.3h40.8c3.5,0,6.3,2.8,6.3,6.3v40.8
			C113.2,110.4,110.4,113.2,106.9,113.2z M66.1,64C65,64,64,65,64,66.1v40.8c0,1.2,0.9,2.1,2.1,2.1h40.8c1.2,0,2.1-0.9,2.1-2.1V66.1
			c0-1.2-0.9-2.1-2.1-2.1H66.1z"/>
	</g>
	<g>
		<polygon class="st2" points="79.7,32.4 86.4,19.4 93.1,32.4 		"/>
	</g>
	<g>
		<polygon class="st2" points="93.4,80.8 86.7,93.8 80,80.8 		"/>
	</g>
	<g>
		<path class="st2" d="M166.8,113.2H126c-3.5,0-6.3-2.8-6.3-6.3V66.1c0-3.5,2.8-6.3,6.3-6.3h40.8c3.5,0,6.3,2.8,6.3,6.3v40.8
			C173.1,110.4,170.3,113.2,166.8,113.2z M126,64c-1.2,0-2.1,0.9-2.1,2.1v40.8c0,1.2,0.9,2.1,2.1,2.1h40.8c1.2,0,2.1-0.9,2.1-2.1
			V66.1c0-1.2-0.9-2.1-2.1-2.1H126z"/>
	</g>
	<g>
		<polygon class="st2" points="140.7,79.7 153.7,86.4 140.7,93.1 		"/>
	</g>
	<g>
		<path class="st2" d="M47.1,113.2H6.3c-3.5,0-6.3-2.8-6.3-6.3V66.1c0-3.5,2.8-6.3,6.3-6.3h40.8c3.5,0,6.3,2.8,6.3,6.3v40.8
			C53.3,110.4,50.5,113.2,47.1,113.2z M6.3,64c-1.2,0-2.1,0.9-2.1,2.1v40.8c0,1.2,0.9,2.1,2.1,2.1h40.8c1.2,0,2.1-0.9,2.1-2.1V66.1
			c0-1.2-0.9-2.1-2.1-2.1H6.3z"/>
	</g>
	<g>
		<polygon class="st2" points="32.4,93.4 19.4,86.7 32.4,79.9 		"/>
	</g>
</g>
<g>
	<path class="st2" d="M285.2,112.2c-0.3,0-0.6,0-0.8-0.1c-1-0.4-1.5-1.5-1.1-2.5c2-5.2,5.6-11.5,9.1-17.5c1.9-3.2,3.8-6.5,5.4-9.5
		l0.7-1.3c4.3-8.1,6.5-12.8,3.5-16.2c-2.4-2.7-2.9-4-3.3-5.7c-0.2-0.8-0.4-1.5-1-2.7c-0.5-0.9-1.1-1.2-2.1-1.8
		c-1.5-0.8-3.5-1.9-4.6-5.4c-1-3.3-1.7-3.6-3-4.2c-1-0.5-2.2-1-3.5-2.4c-1.9-1.8-2-5.5-0.5-11.5c1.9-7.5,3.8-15.4,5.2-21.9
		c0.6-2.7-0.1-4.8-1.8-5.3c-1.8-0.5-4.3,0.9-5.6,4.6c-0.7,2-1.7,5.3-2.9,9c-6.7,21.3-10.5,31.7-14.2,33.4c-2.6,1.2-4.6,1.3-6.3,0.3
		c-3.2-1.9-3.6-7-4.2-13.4c-0.1-1.4-0.2-3-0.4-4.5c-0.6-5.9-3.8-7.6-5.5-7.7c-0.7,0-1.5,0.2-1.6,0.7c-0.2,0.9-0.2,3-0.3,5.7
		c0,4.3-0.1,10.9-1,19.6c-1.4,14.2,1.2,19.5,4.2,25.7c0.5,1.1,1,2.1,1.5,3.3c4.2,9.5,0.5,19.1-2.3,26.1c-0.4,1-1.5,1.5-2.5,1.1
		c-1-0.4-1.5-1.5-1.1-2.5c2.5-6.4,5.9-15.1,2.4-23.1c-0.5-1.1-1-2.1-1.5-3.2c-3.1-6.4-6-12.5-4.5-27.8c0.8-8.6,0.9-15,0.9-19.3
		c0-3.2,0-5.2,0.4-6.6c0.5-2.4,2.8-3.8,5.6-3.7c4,0.2,8.3,3.8,9.1,11.2c0.2,1.6,0.3,3.1,0.4,4.6c0.4,4.5,0.8,9.6,2.3,10.4
		c0.5,0.3,1.5,0.1,2.7-0.5c2.9-1.6,9.4-22.3,12.2-31.1c1.2-3.8,2.2-7,2.9-9.1c2.1-5.9,6.8-8,10.3-7c3.1,0.9,5.7,4.2,4.5,9.8
		c-1.4,6.5-3.3,14.5-5.2,22c-1.4,5.4-0.9,7.4-0.6,7.8c0.9,0.9,1.7,1.3,2.5,1.6c2.1,1,3.7,2,5,6.6c0.6,2,1.4,2.5,2.7,3.1
		c1.2,0.6,2.6,1.4,3.6,3.4c0.8,1.6,1.1,2.7,1.4,3.5c0.3,1.2,0.5,1.9,2.5,4.1c4.9,5.5,1.3,12.5-3,20.5l-0.7,1.3
		c-1.6,3.1-3.6,6.4-5.4,9.7c-3.4,5.9-7,12-8.8,16.9C286.5,111.7,285.9,112.2,285.2,112.2z"/>
</g>
<linearGradient id="SVGID_2_" gradientUnits="userSpaceOnUse" x1="331.96" y1="110.1069" x2="331.96" y2="44.4717">
	<stop  offset="8.588957e-02" style="stop-color:#9D9FA2"/>
	<stop  offset="0.3547" style="stop-color:#D4D5D6"/>
	<stop  offset="0.5" style="stop-color:#EDEDED"/>
	<stop  offset="0.5676" style="stop-color:#E0E1E1"/>
	<stop  offset="0.9387" style="stop-color:#9D9FA2"/>
</linearGradient>
<polygon class="st1" points="339.7,64.5 345.1,64.5 332,44.5 318.8,64.5 324.2,64.5 324.2,90.1 318.8,90.1 332,110.1 345.1,90.1 
	339.7,90.1 "/>
</svg>
